<svg xmlns="http://www.w3.org/2000/svg" xmlns:xlink="http://www.w3.org/1999/xlink" width="125" zoomAndPan="magnify" viewBox="0 0 93.75 93.749996" height="125" preserveAspectRatio="xMidYMid meet" version="1.0"><defs><clipPath id="b15a080a12"><path d="M 0 7.1875 L 93.5 7.1875 L 93.5 86.476562 L 0 86.476562 Z M 0 7.1875 " clip-rule="nonzero"/></clipPath></defs><g clip-path="url(#b15a080a12)"><path fill="#104827" d="M 79.855469 7.191406 L 13.644531 7.191406 C 12.75 7.195312 11.863281 7.28125 10.984375 7.457031 C 10.105469 7.632812 9.253906 7.894531 8.425781 8.238281 C 7.597656 8.578125 6.8125 9 6.070312 9.5 C 5.324219 9.996094 4.636719 10.5625 4.003906 11.195312 C 3.371094 11.828125 2.804688 12.515625 2.304688 13.261719 C 1.808594 14.003906 1.386719 14.792969 1.042969 15.617188 C 0.699219 16.445312 0.441406 17.296875 0.265625 18.175781 C 0.0898438 19.054688 0 19.941406 0 20.835938 L 0 72.664062 C 0 73.558594 0.0898438 74.445312 0.265625 75.324219 C 0.441406 76.203125 0.699219 77.054688 1.042969 77.882812 C 1.386719 78.710938 1.808594 79.496094 2.304688 80.238281 C 2.804688 80.984375 3.371094 81.671875 4.003906 82.304688 C 4.636719 82.9375 5.324219 83.503906 6.070312 84.003906 C 6.8125 84.5 7.597656 84.921875 8.425781 85.265625 C 9.253906 85.605469 10.105469 85.867188 10.984375 86.042969 C 11.863281 86.21875 12.75 86.308594 13.644531 86.308594 L 79.855469 86.308594 C 80.753906 86.308594 81.640625 86.21875 82.515625 86.042969 C 83.394531 85.867188 84.246094 85.605469 85.074219 85.265625 C 85.902344 84.921875 86.6875 84.5 87.433594 84.003906 C 88.175781 83.503906 88.863281 82.9375 89.5 82.304688 C 90.132812 81.671875 90.695312 80.984375 91.195312 80.238281 C 91.691406 79.496094 92.113281 78.710938 92.457031 77.882812 C 92.800781 77.054688 93.058594 76.203125 93.234375 75.324219 C 93.410156 74.445312 93.5 73.558594 93.5 72.664062 L 93.5 20.835938 C 93.5 19.941406 93.410156 19.054688 93.234375 18.175781 C 93.058594 17.296875 92.800781 16.445312 92.457031 15.617188 C 92.113281 14.792969 91.691406 14.003906 91.195312 13.261719 C 90.695312 12.515625 90.132812 11.828125 89.5 11.195312 C 88.863281 10.5625 88.175781 9.996094 87.433594 9.5 C 86.6875 9 85.902344 8.578125 85.074219 8.238281 C 84.246094 7.894531 83.394531 7.632812 82.515625 7.457031 C 81.640625 7.28125 80.753906 7.195312 79.855469 7.191406 Z M 13.644531 14.382812 L 79.855469 14.382812 C 80.242188 14.386719 80.625 14.421875 81.003906 14.492188 C 81.382812 14.5625 81.753906 14.664062 82.117188 14.800781 C 82.476562 14.9375 82.820312 15.105469 83.152344 15.304688 C 83.484375 15.503906 83.792969 15.730469 84.085938 15.984375 C 84.375 16.238281 84.640625 16.515625 84.878906 16.816406 C 85.121094 17.121094 85.332031 17.441406 85.515625 17.78125 C 85.695312 18.121094 85.847656 18.476562 85.964844 18.84375 C 86.085938 19.207031 86.171875 19.582031 86.222656 19.964844 L 54.429688 46.460938 C 53.894531 46.90625 53.324219 47.300781 52.722656 47.648438 C 52.117188 47.996094 51.488281 48.289062 50.832031 48.523438 C 50.179688 48.761719 49.507812 48.941406 48.824219 49.0625 C 48.136719 49.183594 47.445312 49.242188 46.75 49.242188 C 46.054688 49.242188 45.363281 49.183594 44.675781 49.0625 C 43.992188 48.941406 43.320312 48.761719 42.667969 48.523438 C 42.011719 48.289062 41.382812 47.996094 40.78125 47.648438 C 40.175781 47.300781 39.605469 46.90625 39.074219 46.460938 L 7.277344 19.964844 C 7.332031 19.582031 7.414062 19.207031 7.535156 18.84375 C 7.652344 18.476562 7.804688 18.121094 7.988281 17.78125 C 8.167969 17.441406 8.378906 17.121094 8.621094 16.816406 C 8.859375 16.515625 9.125 16.238281 9.417969 15.984375 C 9.707031 15.730469 10.015625 15.503906 10.347656 15.304688 C 10.679688 15.105469 11.023438 14.9375 11.386719 14.800781 C 11.746094 14.664062 12.117188 14.5625 12.496094 14.492188 C 12.875 14.421875 13.257812 14.386719 13.644531 14.382812 Z M 79.855469 79.117188 L 13.644531 79.117188 C 13.21875 79.113281 12.800781 79.070312 12.386719 78.988281 C 11.972656 78.90625 11.570312 78.78125 11.179688 78.617188 C 10.789062 78.457031 10.417969 78.257812 10.066406 78.023438 C 9.714844 77.785156 9.386719 77.519531 9.089844 77.21875 C 8.789062 76.921875 8.523438 76.59375 8.285156 76.242188 C 8.050781 75.890625 7.851562 75.519531 7.6875 75.128906 C 7.527344 74.738281 7.402344 74.335938 7.320312 73.921875 C 7.234375 73.507812 7.195312 73.085938 7.191406 72.664062 L 7.191406 29.253906 L 34.464844 51.984375 C 35.320312 52.695312 36.230469 53.328125 37.199219 53.882812 C 38.164062 54.4375 39.171875 54.90625 40.21875 55.285156 C 41.265625 55.664062 42.335938 55.949219 43.433594 56.144531 C 44.53125 56.335938 45.636719 56.429688 46.75 56.429688 C 47.863281 56.429688 48.96875 56.335938 50.066406 56.144531 C 51.164062 55.949219 52.234375 55.664062 53.28125 55.285156 C 54.332031 54.90625 55.335938 54.4375 56.300781 53.882812 C 57.269531 53.328125 58.179688 52.695312 59.035156 51.984375 L 86.308594 29.253906 L 86.308594 72.664062 C 86.308594 73.085938 86.265625 73.507812 86.179688 73.921875 C 86.097656 74.335938 85.972656 74.738281 85.8125 75.128906 C 85.648438 75.519531 85.449219 75.890625 85.214844 76.242188 C 84.980469 76.59375 84.710938 76.921875 84.414062 77.21875 C 84.113281 77.519531 83.789062 77.785156 83.4375 78.023438 C 83.085938 78.257812 82.714844 78.457031 82.324219 78.617188 C 81.929688 78.78125 81.527344 78.90625 81.113281 78.988281 C 80.699219 79.070312 80.28125 79.113281 79.855469 79.117188 Z M 79.855469 79.117188 " fill-opacity="1" fill-rule="nonzero"/></g></svg>