<svg xmlns="http://www.w3.org/2000/svg" xmlns:xlink="http://www.w3.org/1999/xlink" width="125" zoomAndPan="magnify" viewBox="0 0 93.75 93.749996" height="125" preserveAspectRatio="xMidYMid meet" version="1.0"><defs><clipPath id="6cea3b4df1"><path d="M 1.234375 1 L 92.488281 1 L 92.488281 93 L 1.234375 93 Z M 1.234375 1 " clip-rule="nonzero"/></clipPath></defs><g clip-path="url(#6cea3b4df1)"><path fill="#092f19" d="M 46.746094 1.234375 C 21.609375 1.234375 1.234375 21.613281 1.234375 46.746094 C 1.234375 71.882812 21.609375 92.257812 46.746094 92.257812 C 71.878906 92.257812 92.257812 71.882812 92.257812 46.746094 C 92.257812 21.613281 71.878906 1.234375 46.746094 1.234375 Z M 8.820312 46.746094 C 8.820312 25.800781 25.800781 8.820312 46.746094 8.820312 C 67.691406 8.820312 84.671875 25.800781 84.671875 46.746094 C 84.671875 63.816406 73.394531 78.25 57.886719 83.011719 C 58.3125 75.34375 58.167969 70.597656 57.453125 68.765625 C 56.699219 66.832031 56.082031 66.042969 55.714844 65.566406 C 55.472656 65.253906 55.335938 65.082031 55.335938 64.808594 C 55.335938 64.355469 55.65625 64.023438 56.300781 63.820312 C 61.886719 62.585938 65.632812 59.152344 67.539062 53.519531 C 70.183594 45.710938 66.410156 40.035156 64.886719 37.742188 C 64.761719 37.550781 64.648438 37.382812 64.558594 37.242188 C 63.371094 35.367188 64.925781 30.8125 66.78125 27.164062 C 60.472656 25.898438 58.0625 28.832031 56.679688 30.511719 C 56.117188 31.199219 55.722656 31.679688 55.304688 31.578125 C 54.933594 31.484375 54.53125 31.308594 54.050781 31.097656 C 52.671875 30.492188 50.640625 29.597656 46.746094 29.597656 C 41.914062 29.597656 38.714844 31.285156 38.226562 31.542969 C 38.183594 31.566406 38.160156 31.578125 38.160156 31.578125 C 35.621094 28.039062 32.015625 26.566406 27.34375 27.164062 C 28.632812 32.308594 28.726562 35.664062 27.636719 37.242188 C 25.996094 39.605469 22.921875 45.105469 25.308594 53.519531 C 27.695312 61.929688 36.382812 63.820312 38.035156 63.820312 L 38.046875 63.824219 C 38.179688 63.851562 39.394531 64.113281 39.03125 65.140625 C 38.957031 65.414062 38.910156 65.789062 38.855469 66.207031 C 38.683594 67.554688 38.449219 69.386719 37.160156 69.980469 C 35.464844 70.761719 31.726562 71.1875 30.164062 70.210938 C 29.644531 69.886719 29.269531 69.210938 28.816406 68.390625 C 27.917969 66.753906 26.707031 64.5625 23.402344 63.542969 C 18.449219 62.011719 18.757812 64.035156 19.996094 64.53125 C 20.265625 64.640625 20.628906 64.742188 21.039062 64.859375 C 22.5 65.273438 24.597656 65.867188 25.675781 67.597656 C 25.988281 68.105469 26.316406 68.660156 26.644531 69.230469 C 27.765625 71.148438 28.964844 73.203125 30.164062 73.992188 C 31.199219 74.671875 33.683594 74.945312 37.609375 74.808594 C 37.441406 78.515625 37.347656 81.414062 37.335938 83.496094 C 20.941406 79.3125 8.820312 64.445312 8.820312 46.746094 Z M 8.820312 46.746094 " fill-opacity="0.85" fill-rule="evenodd"/></g></svg>