<?xml version="1.0" encoding="UTF-8"?>
<svg version="1.1" xmlns="http://www.w3.org/2000/svg" width="512" height="512">
<path d="M0 0 C1.63309093 -0.00417981 3.26617895 -0.00966086 4.89926165 -0.01631981 C9.35827209 -0.03070842 13.81709665 -0.0265504 18.27611697 -0.019153 C23.0962963 -0.01440722 27.91643623 -0.02694366 32.73660278 -0.03717041 C42.16887874 -0.05433651 51.60108802 -0.05520291 61.03337554 -0.04995751 C68.70316225 -0.04591028 76.3729293 -0.04736593 84.04271507 -0.05270576 C85.68234457 -0.0538284 85.68234457 -0.0538284 87.35509789 -0.05497371 C89.57596551 -0.05650525 91.79683314 -0.05804359 94.01770075 -0.05958868 C114.82887802 -0.07330595 135.64001767 -0.06788159 156.45119407 -0.05640347 C175.47132249 -0.04647324 194.4913536 -0.05940951 213.51146702 -0.08333766 C233.06227401 -0.10774727 252.61303572 -0.11733186 272.16385764 -0.11068493 C283.13174659 -0.10719668 294.09956073 -0.10939867 305.06743813 -0.12693596 C314.40469083 -0.14168127 323.74181605 -0.142263 333.07906631 -0.12486505 C337.83843908 -0.11637164 342.59758433 -0.11416479 347.35694504 -0.1295166 C351.7225472 -0.14342339 356.08772823 -0.13852421 360.4533064 -0.11927737 C362.02386249 -0.11553531 363.59445281 -0.11838696 365.16497824 -0.12888902 C385.0193064 -0.2521048 401.85866541 5.12107831 416.38981628 19.12986755 C417.12716003 19.87494568 417.86450378 20.6200238 418.62419128 21.38768005 C419.66833191 22.38154724 419.66833191 22.38154724 420.73356628 23.39549255 C425.1062173 27.85288487 428.10934241 32.68325844 430.93669128 38.20018005 C431.2623407 38.82738953 431.58799011 39.454599 431.92350769 40.10081482 C437.34764234 51.25794671 438.06305648 62.56375636 438.01187134 74.76348877 C438.01605115 76.3965797 438.02153219 78.02966772 438.02819115 79.66275042 C438.04257976 84.12176085 438.03842174 88.58058542 438.03102434 93.03960574 C438.02627856 97.85978507 438.038815 102.679925 438.04904175 107.50009155 C438.06620785 116.93236751 438.06707425 126.36457679 438.06182884 135.79686431 C438.05778162 143.46665102 438.05923727 151.13641807 438.0645771 158.80620384 C438.06532552 159.89929017 438.06607395 160.9923765 438.06684505 162.11858666 C438.06837658 164.33945428 438.06991493 166.56032191 438.07146002 168.78118952 C438.08517729 189.59236679 438.07975293 210.40350644 438.0682748 231.21468284 C438.05834458 250.23481126 438.07128085 269.25484237 438.095209 288.27495579 C438.11961861 307.82576278 438.1292032 327.37652449 438.12255627 346.92734641 C438.11906802 357.89523536 438.12127001 368.8630495 438.1388073 379.8309269 C438.15355261 389.1681796 438.15413434 398.50530482 438.13673639 407.84255508 C438.12824298 412.60192785 438.12603613 417.3610731 438.14138794 422.12043381 C438.15529472 426.48603597 438.15039554 430.851217 438.1311487 435.21679517 C438.12740664 436.78735126 438.1302583 438.35794158 438.14076035 439.92846701 C438.26397614 459.78279517 432.89079303 476.62215418 418.88200378 491.15330505 C418.13692566 491.8906488 417.39184753 492.62799255 416.62419128 493.38768005 C415.96161316 494.0837738 415.29903503 494.77986755 414.61637878 495.49705505 C410.15898647 499.86970607 405.3286129 502.87283118 399.81169128 505.70018005 C399.18448181 506.02582947 398.55727234 506.35147888 397.91105652 506.68699646 C386.75392463 512.11113111 375.44811498 512.82654525 363.24838257 512.77536011 C361.61529164 512.77953992 359.98220362 512.78502096 358.34912091 512.79167992 C353.89011048 512.80606853 349.43128592 512.80191051 344.9722656 512.79451311 C340.15208627 512.78976733 335.33194634 512.80230377 330.51177979 512.81253052 C321.07950383 512.82969662 311.64729455 512.83056302 302.21500703 512.82531761 C294.54522032 512.82127039 286.87545327 512.82272604 279.2056675 512.82806587 C277.566038 512.82918851 277.566038 512.82918851 275.89328468 512.83033382 C273.67241705 512.83186535 271.45154943 512.8334037 269.23068181 512.83494879 C248.41950455 512.84866606 227.6083649 512.8432417 206.7971885 512.83176357 C187.77706008 512.82183335 168.75702896 512.83476962 149.73691555 512.85869776 C130.18610856 512.88310738 110.63534685 512.89269197 91.08452493 512.88604504 C80.11663598 512.88255679 69.14882184 512.88475878 58.18094444 512.90229607 C48.84369174 512.91704138 39.50656652 512.91762311 30.16931625 512.90022516 C25.40994349 512.89173174 20.65079824 512.8895249 15.89143753 512.90487671 C11.52583537 512.91878349 7.16065434 512.91388431 2.79507617 512.89463747 C1.22452008 512.89089541 -0.34607024 512.89374707 -1.91659568 512.90424912 C-21.77092383 513.02746491 -38.61028284 507.6542818 -53.14143372 493.64549255 C-53.87877747 492.90041443 -54.61612122 492.1553363 -55.37580872 491.38768005 C-56.07190247 490.72510193 -56.76799622 490.0625238 -57.48518372 489.37986755 C-61.85783473 484.92247524 -64.86095985 480.09210167 -67.68830872 474.57518005 C-68.17678284 473.63436584 -68.17678284 473.63436584 -68.67512512 472.67454529 C-74.09925977 461.5174134 -74.81467391 450.21160375 -74.76348877 438.01187134 C-74.76766858 436.37878041 -74.77314963 434.74569239 -74.77980858 433.11260968 C-74.79419719 428.65359925 -74.79003917 424.19477469 -74.78264177 419.73575437 C-74.77789599 414.91557504 -74.79043243 410.0954351 -74.80065918 405.27526855 C-74.81782528 395.8429926 -74.81869168 386.41078332 -74.81344628 376.9784958 C-74.80939905 369.30870909 -74.8108547 361.63894204 -74.81619453 353.96915627 C-74.81694296 352.87606994 -74.81769138 351.78298361 -74.81846248 350.65677345 C-74.81999402 348.43590582 -74.82153236 346.2150382 -74.82307745 343.99417058 C-74.83679472 323.18299331 -74.83137036 302.37185367 -74.81989224 281.56067727 C-74.80996201 262.54054885 -74.82289828 243.52051773 -74.84682643 224.50040432 C-74.87123604 204.94959733 -74.88082063 185.39883562 -74.8741737 165.8480137 C-74.87068545 154.88012475 -74.87288744 143.91231061 -74.89042473 132.94443321 C-74.90517004 123.60718051 -74.90575177 114.27005529 -74.88835382 104.93280502 C-74.87986041 100.17343226 -74.87765356 95.41428701 -74.89300537 90.6549263 C-74.90691216 86.28932414 -74.90201297 81.92414311 -74.88276614 77.55856494 C-74.87902408 75.98800885 -74.88187573 74.41741853 -74.89237779 72.84689309 C-75.01559357 52.99256494 -69.64241046 36.15320593 -55.63362122 21.62205505 C-54.88854309 20.8847113 -54.14346497 20.14736755 -53.37580872 19.38768005 C-52.38194153 18.34353943 -52.38194153 18.34353943 -51.36799622 17.27830505 C-46.9106039 12.90565404 -42.08023033 9.90252892 -36.56330872 7.07518005 C-35.93609924 6.74953064 -35.30888977 6.42388123 -34.66267395 6.08836365 C-23.50554206 0.66422899 -12.19973241 -0.05118514 0 0 Z M32.31169128 113.32518005 C24.72287846 124.19336906 22.14217025 135.24331644 23.62419128 148.38768005 C26.7139978 161.01212556 33.99378993 170.95957404 44.97184753 177.86424255 C55.86319151 183.76731647 67.83818151 184.92294655 79.76481628 181.48143005 C91.76477816 176.92759837 100.37955247 169.40924358 105.83903503 157.8056488 C110.73201712 146.19134614 110.79233532 135.28780876 106.62419128 123.38768005 C104.87480899 119.85951407 102.86040448 116.62509326 100.62419128 113.38768005 C100.04669128 112.50080505 99.46919128 111.61393005 98.87419128 110.70018005 C89.7089088 101.28030639 79.14877364 97.03806791 66.18669128 96.82518005 C52.43593769 96.94338522 40.8922738 102.41221975 32.31169128 113.32518005 Z M206.16716003 218.86424255 C203.40174369 221.9236401 200.91282944 224.95472282 198.62419128 228.38768005 C198.6200824 227.80800476 198.61597351 227.22832947 198.61174011 226.63108826 C198.57869852 223.98643896 198.50804864 221.34406166 198.43669128 218.70018005 C198.4308905 217.78816833 198.42508972 216.87615662 198.41911316 215.93650818 C198.26669995 211.27943796 198.15629246 209.06373131 195.19841003 205.3056488 C191.65989107 202.66921055 189.96069086 202.25711627 185.61125183 202.2106781 C184.5664415 202.19784286 183.52163116 202.18500763 182.44515991 202.17178345 C181.31185745 202.16439651 180.17855499 202.15700958 179.01091003 202.1493988 C177.84920792 202.14132706 176.6875058 202.13325531 175.49060059 202.12493896 C173.02839149 202.11108979 170.56616312 202.10037138 168.10392761 202.09251404 C164.33752588 202.07529814 160.57200096 202.03141748 156.80583191 201.98728943 C154.41586442 201.97716308 152.02588945 201.9686468 149.63591003 201.9618988 C148.50868027 201.94439072 147.3814505 201.92688263 146.22006226 201.90884399 C140.10121185 201.90301092 140.10121185 201.90301092 134.49845886 204.10179138 C130.61329878 208.84019881 130.33310608 213.39946769 130.36349487 219.34480286 C130.35966933 220.14042873 130.35584378 220.9360546 130.35190231 221.75579035 C130.34159285 224.41879888 130.34556055 227.08159096 130.34953308 229.74461365 C130.34518545 231.6551534 130.34000213 233.5656914 130.33404541 235.47622681 C130.32064914 240.66427144 130.32007749 245.85224324 130.32260871 251.0403018 C130.32367807 255.37182598 130.3187959 259.70333541 130.31400329 264.03485644 C130.30290576 274.25436355 130.30247197 284.4738339 130.30851746 294.69334412 C130.31455733 305.23442816 130.30224643 315.77537872 130.28094739 326.31643999 C130.26333087 335.36796398 130.25733014 344.4194455 130.26058513 353.47098601 C130.26239817 358.87642458 130.25975973 364.28176796 130.24587059 369.68719101 C130.23329624 374.77123498 130.23523272 379.85507094 130.24828148 384.93911171 C130.25064772 386.80351774 130.24791087 388.66793839 130.23965836 390.53232765 C130.22919312 393.08065614 130.23728961 395.62828638 130.24996948 398.17658997 C130.2425952 398.91152439 130.23522091 399.64645882 130.22762316 400.40366399 C130.28098759 405.51396985 131.24653044 408.95002595 133.62419128 413.38768005 C139.30979155 417.00772171 144.96881151 416.82648294 151.56169128 416.78611755 C152.60059509 416.78898773 153.6394989 416.79185791 154.70988464 416.79481506 C156.89844816 416.79684943 159.08703011 416.79136367 161.27555847 416.77879333 C164.61353962 416.76273131 167.95031001 416.77866402 171.28825378 416.7978363 C173.42106894 416.79585376 175.55388335 416.79200986 177.68669128 416.78611755 C179.17447083 416.79522659 179.17447083 416.79522659 180.69230652 416.80451965 C186.3883577 416.74708696 190.69917737 416.38078695 195.62419128 413.38768005 C198.44092251 408.6556393 197.90189286 403.31975037 197.87956238 397.99217224 C197.88318283 396.94585632 197.88680328 395.89954041 197.89053345 394.82151794 C197.89742279 392.55005006 197.89993375 390.27856564 197.89858627 388.00708771 C197.89761893 384.39777534 197.91059223 380.78875911 197.92756653 377.17948914 C197.97374869 366.91720434 197.99840236 356.65494799 198.00505066 346.39256287 C198.01010133 340.11021253 198.03453907 333.82816771 198.07037735 327.54592133 C198.08010178 325.1652384 198.08254804 322.78451302 198.07720566 320.40381622 C198.03921199 302.62415806 198.41369523 285.70342413 208.62419128 270.38768005 C209.34606628 269.29455505 210.06794128 268.20143005 210.81169128 267.07518005 C219.07032049 259.18360104 228.03971971 256.9972381 239.13591003 257.1103363 C246.75641576 257.71622198 254.48238063 260.02800625 260.09684753 265.4228363 C269.35177208 277.32878783 270.76723097 291.18870419 270.78190613 305.68138123 C270.78698685 306.78642502 270.79206757 307.89146881 270.79730225 309.02999878 C270.80796204 311.41766773 270.81659924 313.8053464 270.82342148 316.1930294 C270.83525659 319.97145105 270.85471802 323.74976077 270.87654114 327.52813721 C270.93802635 338.26668369 270.99253972 349.00520758 271.02555847 359.74388123 C271.04587013 366.32137368 271.08174401 372.8986737 271.12631607 379.47605324 C271.14048852 381.98108268 271.1492013 384.48614914 271.15237045 386.99121666 C271.15726635 390.48842308 271.18038773 393.98506944 271.20768738 397.48216248 C271.20468124 398.51760193 271.20167511 399.55304138 271.19857788 400.61985779 C271.2461609 407.507938 271.2461609 407.507938 274.62419128 413.38768005 C279.96962443 417.23656013 285.57882398 416.82300965 291.90153503 416.78611755 C292.98624588 416.78898773 294.07095673 416.79185791 295.1885376 416.79481506 C297.47723413 416.79685201 299.76594821 416.79134807 302.05461121 416.77879333 C305.54630231 416.76275076 309.03683315 416.77864733 312.52848816 416.7978363 C314.75700633 416.7958535 316.98552377 416.79200907 319.21403503 416.78611755 C320.25277267 416.79219025 321.29151031 416.79826294 322.36172485 416.80451965 C328.156256 416.74867061 332.68026439 416.56675937 337.62419128 413.38768005 C340.55086399 407.99207102 341.05086968 403.61286604 340.9806366 397.5478363 C340.98370316 396.26037254 340.98370316 396.26037254 340.98683167 394.94689941 C340.98983254 392.11444082 340.97134671 389.28256956 340.95231628 386.45018005 C340.94925042 384.44936771 340.9473806 382.44855321 340.94664001 380.44773865 C340.94203725 376.24127578 340.92763845 372.03500433 340.90544128 367.82859802 C340.87759241 362.5340065 340.86636357 357.23956642 340.86162186 351.9449091 C340.8432213 333.18153119 340.76711982 314.42057191 340.18669128 295.6650238 C340.15053711 294.47517883 340.11438293 293.28533386 340.07713318 292.05943298 C339.12264999 265.5083222 334.65476668 235.60606737 314.45622253 216.31736755 C285.86048414 191.78007816 233.02375176 191.79416441 206.16716003 218.86424255 Z M34.62419128 206.38768005 C32.62616452 211.05130689 32.33753167 215.38105527 32.36349487 220.38240051 C32.35966933 221.17000814 32.35584378 221.95761577 32.35190231 222.76909029 C32.34161237 225.39902082 32.34555682 228.0287314 32.34953308 230.65867615 C32.34518437 232.54803672 32.34000069 234.43739552 32.33404541 236.32675171 C32.32066085 241.45282303 32.32007617 246.5788206 32.32260871 251.70490599 C32.32367885 255.98667958 32.31879392 260.26843828 32.31400329 264.55020869 C32.30290985 274.65327038 32.3024697 284.7562949 32.30851746 294.85935974 C32.31455715 305.27604522 32.30224592 315.69259562 32.28094739 326.10925806 C32.26332406 335.05805871 32.25733121 344.00681639 32.26058513 352.95563376 C32.26239705 358.29793255 32.25977085 363.640135 32.24587059 368.98241806 C32.23328512 374.00738332 32.23524324 379.03213823 32.24828148 384.0571003 C32.25064528 385.89851134 32.24791962 387.73993722 32.23965836 389.58133125 C32.2291724 392.10079434 32.23730612 394.61955405 32.24996948 397.13899231 C32.2425952 397.86254988 32.23522091 398.58610745 32.22762316 399.33159101 C32.28399457 404.68610795 33.37029794 408.5956086 35.62419128 413.38768005 C41.13399759 417.11931343 47.80871257 416.82741904 54.22184753 416.78611755 C55.21494431 416.78898773 56.20804108 416.79185791 57.23123169 416.79481506 C59.31966221 416.7968466 61.40811216 416.79138082 63.49650574 416.77879333 C66.6807785 416.76270992 69.8637854 416.77868228 73.04801941 416.7978363 C75.08513156 416.79585404 77.12224294 416.79201073 79.15934753 416.78611755 C80.57680016 416.79522659 80.57680016 416.79522659 82.02288818 416.80451965 C87.63168704 416.74523143 91.7459955 416.26238022 96.62419128 413.38768005 C99.90838295 409.23573939 100.04837725 405.40128553 99.99841309 400.3032074 C100.0043747 399.0892759 100.0043747 399.0892759 100.01045674 397.85082054 C100.020074 395.14157366 100.00826515 392.43284971 99.99650574 389.72361755 C99.99893389 387.78027654 100.00265344 385.83693678 100.00756836 383.89360046 C100.01697774 378.61680296 100.00755145 373.34019092 99.99423623 368.0634079 C99.98292423 362.54308035 99.98702905 357.02276196 99.98898315 351.50242615 C99.98986621 342.23172473 99.97878333 332.96109643 99.96037292 323.69041443 C99.93920516 312.96981276 99.93569537 302.24931821 99.94193488 291.52869987 C99.94762825 281.21892252 99.94198319 270.90918292 99.93076134 260.59941101 C99.92611499 256.21036583 99.92524166 251.82134373 99.92734718 247.43229675 C99.9292299 242.26456563 99.92112736 237.09694362 99.90528679 231.92923737 C99.90104187 230.03174542 99.90019478 228.1342424 99.90297699 226.23674774 C99.90619654 223.64842938 99.89712266 221.0604375 99.8848877 218.47215271 C99.88866702 217.71971975 99.89244634 216.9672868 99.89634019 216.19205284 C99.862631 212.16590279 99.54734287 208.95984825 97.62419128 205.38768005 C92.31447006 201.44474836 86.42509118 201.93664459 80.09294128 201.9540863 C78.42902344 201.94622353 78.42902344 201.94622353 76.73149109 201.9382019 C74.39153377 201.93179256 72.05154418 201.93310457 69.71159363 201.94163513 C66.13630249 201.95015121 62.56260626 201.9213564 58.98747253 201.88963318 C56.71012926 201.88802115 54.43278317 201.88859872 52.15544128 201.8915863 C51.08966858 201.88035233 50.02389587 201.86911835 48.92582703 201.85754395 C43.08388746 201.91227908 39.02078636 202.10135701 34.62419128 206.38768005 Z " fill="#0F4826" transform="translate(74.37580871582031,-0.3876800537109375)"/>
</svg>
