<svg version="1.1" id="svg279" xml:space="preserve" width="300" height="300" viewBox="0 0 32 32" xmlns="http://www.w3.org/2000/svg" xmlns:svg="http://www.w3.org/2000/svg" xmlns:xlink="http://www.w3.org/1999/xlink" xmlns:svgjs="http://svgjs.dev/svgjs"><g transform="matrix(1,0,0,1,0,0)"><defs id="defs283"><clipPath clipPathUnits="userSpaceOnUse" id="clipPath301"><path d="M 0,24 H 24 V 0 H 0 Z" id="path299" fill="#104827" fill-opacity="1" data-original-color="#000000ff" stroke="none" stroke-opacity="1"/></clipPath></defs><g id="g285" transform="matrix(1.3333333,0,0,-1.3333333,0,32)"><g id="g287" transform="translate(16,10)"><path d="M 0,0 H -8" style="stroke-linecap: round; stroke-linejoin: round; stroke-miterlimit: 10; stroke-dasharray: none;" id="path289" fill="none" fill-opacity="1" stroke="#104827" stroke-opacity="1" data-original-stroke-color="#000000ff" stroke-width="2" data-original-stroke-width="2"/></g><g id="g291" transform="translate(13,6)"><path d="M 0,0 H -5" style="stroke-linecap: round; stroke-linejoin: round; stroke-miterlimit: 10; stroke-dasharray: none;" id="path293" fill="none" fill-opacity="1" stroke="#104827" stroke-opacity="1" data-original-stroke-color="#000000ff" stroke-width="2" data-original-stroke-width="2"/></g><g id="g295"><g id="g297" clip-path="url(#clipPath301)"><g id="g303" transform="translate(11.5146,23)"><path d="M 0,0 C 1.592,0 3.117,-0.632 4.243,-1.757 L 7.728,-5.243 C 8.854,-6.368 9.485,-7.894 9.485,-9.485 V -18 c 0,-2.209 -1.791,-4 -4,-4 h -10 c -2.209,0 -4,1.791 -4,4 v 14 c 0,2.209 1.791,4 4,4 z" style="stroke-linecap: round; stroke-linejoin: round; stroke-miterlimit: 10; stroke-dasharray: none;" id="path305" fill="none" fill-opacity="1" stroke="#104827" stroke-opacity="1" data-original-stroke-color="#000000ff" stroke-width="2" data-original-stroke-width="2"/></g><g id="g307" transform="translate(13,22)"><path d="M 0,0 V -5 C 0,-6.104 0.896,-7 2,-7 H 7" style="stroke-linecap: round; stroke-linejoin: round; stroke-miterlimit: 10; stroke-dasharray: none;" id="path309" fill="none" fill-opacity="1" stroke="#104827" stroke-opacity="1" data-original-stroke-color="#000000ff" stroke-width="2" data-original-stroke-width="2"/></g></g></g></g></g></svg>