<svg xmlns="http://www.w3.org/2000/svg" xmlns:xlink="http://www.w3.org/1999/xlink" width="125" zoomAndPan="magnify" viewBox="0 0 93.75 93.749996" height="125" preserveAspectRatio="xMidYMid meet" version="1.0"><defs><clipPath id="7de2def20e"><path d="M 0 0 L 93.5 0 L 93.5 93.5 L 0 93.5 Z M 0 0 " clip-rule="nonzero"/></clipPath><clipPath id="20b3cf6852"><path d="M 0 33.660156 L 0 59.839844 C 0 78.429688 15.070312 93.5 33.660156 93.5 L 59.839844 93.5 C 78.429688 93.5 93.5 78.429688 93.5 59.839844 L 93.5 33.660156 C 93.5 15.070312 78.429688 0 59.839844 0 L 33.660156 0 C 15.070312 0 0 15.070312 0 33.660156 Z M 0 33.660156 " clip-rule="nonzero"/></clipPath><clipPath id="49889e82b5"><path d="M 41 16 L 66 16 L 66 65 L 41 65 Z M 41 16 " clip-rule="nonzero"/></clipPath><clipPath id="5edfde8e28"><path d="M 0 33.660156 L 0 59.839844 C 0 78.429688 15.070312 93.5 33.660156 93.5 L 59.839844 93.5 C 78.429688 93.5 93.5 78.429688 93.5 59.839844 L 93.5 33.660156 C 93.5 15.070312 78.429688 0 59.839844 0 L 33.660156 0 C 15.070312 0 0 15.070312 0 33.660156 Z M 0 33.660156 " clip-rule="nonzero"/></clipPath></defs><g clip-path="url(#7de2def20e)"><g clip-path="url(#20b3cf6852)"><path fill="#104827" d="M 46.75 93.5 C 34.261719 93.5 22.523438 88.636719 13.691406 79.808594 C 4.863281 70.976562 0 59.238281 0 46.75 C 0 34.261719 4.863281 22.523438 13.691406 13.691406 C 22.523438 4.863281 34.261719 0 46.75 0 C 59.238281 0 70.976562 4.863281 79.808594 13.691406 C 88.636719 22.523438 93.5 34.261719 93.5 46.75 C 93.5 59.238281 88.636719 70.976562 79.808594 79.808594 C 70.980469 88.640625 59.238281 93.5 46.75 93.5 Z M 46.75 7.136719 C 24.90625 7.136719 7.136719 24.90625 7.136719 46.75 C 7.136719 68.59375 24.90625 86.367188 46.75 86.367188 C 68.59375 86.367188 86.367188 68.59375 86.367188 46.75 C 86.367188 24.90625 68.59375 7.136719 46.75 7.136719 Z M 46.75 7.136719 " fill-opacity="1" fill-rule="nonzero"/></g></g><g clip-path="url(#49889e82b5)"><g clip-path="url(#5edfde8e28)"><path fill="#104827" d="M 62.269531 64.800781 C 61.574219 64.800781 60.871094 64.597656 60.253906 64.175781 L 42.875 52.257812 C 41.902344 51.589844 41.324219 50.488281 41.324219 49.308594 L 41.371094 20.144531 C 41.371094 18.179688 42.96875 16.585938 44.9375 16.585938 C 44.9375 16.585938 44.941406 16.585938 44.941406 16.585938 C 46.910156 16.585938 48.503906 18.1875 48.503906 20.15625 L 48.460938 47.4375 L 64.289062 58.292969 C 65.914062 59.40625 66.328125 61.628906 65.210938 63.253906 C 64.519531 64.257812 63.402344 64.800781 62.269531 64.800781 Z M 62.269531 64.800781 " fill-opacity="1" fill-rule="nonzero"/></g></g></svg>